<?xml version="1.0" encoding="utf-8"?>
<svg version="1.1" xmlns:xlink="http://www.w3.org/1999/xlink" width="40px" height="50px" xmlns="http://www.w3.org/2000/svg">
  <defs>
    <filter x="411px" y="16px" width="40px" height="50px" filterUnits="userSpaceOnUse" id="filter1">
      <feOffset dx="1" dy="1" in="SourceAlpha" result="shadowOffsetInner" />
      <feGaussianBlur stdDeviation="2.5" in="shadowOffsetInner" result="shadowGaussian" />
      <feComposite in2="shadowGaussian" operator="atop" in="SourceAlpha" result="shadowComposite" />
      <feColorMatrix type="matrix" values="0 0 0 0 0  0 0 0 0 0  0 0 0 0 0  0 0 0 0.698039215686274 0  " in="shadowComposite" />
    </filter>
    <g id="widget2">
      <path d="M 430 59.0369284683536  C 424.2 49.4073405959099  415.5 43.6295878724437  415.5 34  C 415.5 28.9857142857143  418.4 20.5  430 20.5  C 441.6 20.5  444.5 28.9857142857143  444.5 34  C 444.5 43.6295878724437  435.8 49.4073405959099  430 59.0369284683536  Z " fill-rule="nonzero" fill="#009dd9" stroke="none" />
      <path d="M 430 60  C 424 50  415 44  415 34  C 415 28.8  418 20  430 20  C 442 20  445 28.8  445 34  C 445 44  436 50  430 60  Z M 430 58.0738569367072  C 435.6 48.8146811918198  444 43.2591757448874  444 34  C 444 29.1714285714286  441.2 21  430 21  C 418.8 21  416 29.1714285714286  416 34  C 416 43.2591757448874  424.4 48.8146811918198  430 58.0738569367072  Z " fill-rule="nonzero" fill="#ffffff" stroke="none" />
    </g>
  </defs>
  <g transform="matrix(1 0 0 1 -411 -16 )">
    <use xlink:href="#widget2" filter="url(#filter1)" />
    <use xlink:href="#widget2" />
  </g>
</svg>